# Blender v2.93.1 OBJ File: ''
# www.blender.org
v -1.440527 0.000000 1.000000
v -1.600000 0.000000 0.900330
v -1.471639 0.000000 0.998085
v -1.501555 0.000000 0.992413
v -1.529126 0.000000 0.983203
v -1.553292 0.000000 0.970807
v -1.573124 0.000000 0.955703
v -1.587861 0.000000 0.938472
v -1.596936 0.000000 0.919774
v 1.600000 0.000000 0.900330
v 1.440527 0.000000 1.000000
v 1.596936 0.000000 0.919774
v 1.587861 0.000000 0.938472
v 1.573124 0.000000 0.955703
v 1.553292 0.000000 0.970807
v 1.529126 0.000000 0.983203
v 1.501555 0.000000 0.992413
v 1.471639 0.000000 0.998085
v -1.440527 0.000000 -1.000000
v -1.600000 0.000000 -0.900330
v -1.471639 0.000000 -0.998085
v -1.501555 0.000000 -0.992413
v -1.529126 0.000000 -0.983203
v -1.553292 0.000000 -0.970807
v -1.573124 0.000000 -0.955703
v -1.587861 0.000000 -0.938472
v -1.596936 0.000000 -0.919774
v 1.440527 0.000000 -1.000000
v 1.600000 0.000000 -0.900330
v 1.471639 0.000000 -0.998085
v 1.501555 0.000000 -0.992413
v 1.529126 0.000000 -0.983203
v 1.553292 0.000000 -0.970807
v 1.573124 0.000000 -0.955703
v 1.587861 0.000000 -0.938472
v 1.596936 0.000000 -0.919774
vt 0.000000 0.049835
vt 0.000958 0.040113
vt 0.003793 0.030764
vt 0.008399 0.022148
vt 0.014596 0.014596
vt 0.022148 0.008399
vt 0.030764 0.003793
vt 0.040113 0.000958
vt 0.049835 0.000000
vt 0.950165 0.000000
vt 0.959887 0.000958
vt 0.969236 0.003793
vt 0.977852 0.008399
vt 0.985404 0.014596
vt 0.991601 0.022148
vt 0.996207 0.030764
vt 0.999043 0.040113
vt 1.000000 0.049835
vt 1.000000 0.950165
vt 0.999042 0.959887
vt 0.996207 0.969236
vt 0.991601 0.977852
vt 0.985404 0.985404
vt 0.977852 0.991601
vt 0.969236 0.996207
vt 0.959887 0.999042
vt 0.950165 1.000000
vt 0.049835 1.000000
vt 0.040113 0.999043
vt 0.030764 0.996207
vt 0.022148 0.991601
vt 0.014596 0.985404
vt 0.008399 0.977852
vt 0.003793 0.969236
vt 0.000958 0.959887
vt 0.000000 0.950165
vn 0.0000 1.0000 0.0000
s off
f 2/1/1 9/2/1 8/3/1 7/4/1 6/5/1 5/6/1 4/7/1 3/8/1 1/9/1 11/10/1 18/11/1 17/12/1 16/13/1 15/14/1 14/15/1 13/16/1 12/17/1 10/18/1 29/19/1 36/20/1 35/21/1 34/22/1 33/23/1 32/24/1 31/25/1 30/26/1 28/27/1 19/28/1 21/29/1 22/30/1 23/31/1 24/32/1 25/33/1 26/34/1 27/35/1 20/36/1
